<?xml version="1.0" standalone="no"?>
<!DOCTYPE svg PUBLIC "-//W3C//DTD SVG 20010904//EN"
 "http://www.w3.org/TR/2001/REC-SVG-20010904/DTD/svg10.dtd">
<svg version="1.0" xmlns="http://www.w3.org/2000/svg"
 width="500.000000pt" height="500.000000pt" viewBox="0 0 500.000000 500.000000"
 preserveAspectRatio="xMidYMid meet">

<g transform="translate(0.000000,500.000000) scale(0.100000,-0.100000)"
fill="#000000" stroke="none">
<path d="M736 4984 c-178 -43 -336 -203 -376 -379 -18 -78 -13 -202 9 -275 50
-161 182 -292 343 -341 56 -17 89 -20 176 -17 99 3 113 6 185 40 88 42 190
132 233 205 120 205 87 462 -80 629 -130 130 -311 181 -490 138z"/>
<path d="M3565 4980 c-97 -26 -140 -45 -212 -96 -175 -124 -273 -348 -244
-556 13 -92 33 -156 73 -226 l30 -53 29 38 c40 49 122 119 170 143 l38 20 -34
56 c-123 203 -19 450 214 509 75 20 143 14 217 -20 186 -83 260 -321 153 -490
-16 -25 -29 -47 -29 -49 0 -2 29 -22 65 -45 36 -23 86 -67 112 -96 27 -30 52
-55 56 -55 15 0 76 144 93 218 33 148 -4 326 -94 460 -139 204 -403 304 -637
242z"/>
<path d="M3624 4631 c-130 -79 -111 -264 32 -311 142 -47 271 106 202 240 -42
82 -158 117 -234 71z"/>
<path d="M3630 4129 c-86 -15 -155 -52 -226 -123 -35 -35 -64 -70 -64 -78 0
-8 24 -28 53 -46 124 -75 279 -105 416 -79 83 16 185 57 242 97 l29 21 -30 44
c-36 53 -124 117 -194 144 -65 24 -156 32 -226 20z"/>
<path d="M832 3628 c-7 -90 -17 -244 -24 -343 l-11 -180 29 -47 c16 -27 32
-48 36 -48 3 0 20 23 37 50 l31 50 -20 278 c-29 403 -28 402 -49 402 -16 0
-19 -19 -29 -162z"/>
<path d="M620 3758 c-19 -5 -39 -13 -44 -18 -10 -10 16 -131 48 -228 l23 -67
7 105 c4 58 9 131 13 163 3 31 2 57 -3 56 -5 0 -25 -5 -44 -11z"/>
<path d="M1054 3753 c3 -10 8 -78 12 -151 3 -73 10 -134 14 -137 9 -5 43 109
74 247 5 24 2 27 -41 42 -59 20 -66 20 -59 -1z"/>
<path d="M3023 3488 l-258 -258 60 -60 60 -60 277 278 278 277 -80 41 -79 40
-258 -258z"/>
<path d="M360 3630 c-152 -109 -274 -281 -331 -470 -22 -73 -23 -89 -27 -598
-3 -519 -3 -524 18 -568 31 -64 86 -94 173 -94 l67 0 0 730 0 730 85 0 85 0 2
-1623 c3 -1519 4 -1625 20 -1649 88 -134 283 -105 318 48 5 22 10 412 10 881
0 988 -10 901 118 1035 l76 79 60 -60 61 -61 -57 -57 c-96 -99 -88 -9 -88
-971 l0 -849 23 -43 c27 -51 90 -90 145 -90 56 0 119 36 147 84 l25 43 0 996
c0 947 -1 997 -19 1039 -43 102 -56 177 -56 338 0 161 13 236 56 338 17 39 19
72 19 283 l0 239 90 0 90 0 0 -102 0 -102 38 35 c28 27 102 86 130 105 7 4
-38 81 -80 139 -51 69 -131 149 -193 194 l-44 32 -11 -43 c-80 -309 -165 -501
-343 -772 l-104 -158 -96 143 c-182 274 -272 476 -354 797 l-8 34 -45 -32z"/>
<path d="M2045 3266 c-234 -37 -421 -158 -548 -357 -143 -224 -155 -514 -32
-759 145 -287 459 -459 772 -420 210 26 388 125 526 290 47 56 122 206 142
285 38 146 26 338 -31 481 -79 196 -267 378 -462 445 -55 19 -226 50 -267 48
-11 -1 -56 -7 -100 -13z m195 -250 l0 -83 41 -7 c93 -15 177 -89 204 -180 23
-78 25 -76 -69 -76 l-84 0 -12 30 c-21 51 -52 60 -205 60 l-135 0 0 -55 c0
-46 4 -60 29 -87 l29 -32 143 -6 c134 -5 147 -7 191 -33 53 -31 100 -92 117
-152 6 -22 11 -104 11 -182 l0 -143 -130 0 -130 0 0 -85 0 -85 -85 0 -85 0 0
84 0 83 -41 7 c-108 17 -198 107 -215 215 l-7 41 87 0 c83 0 86 -1 92 -25 3
-14 18 -34 31 -45 23 -18 41 -20 169 -20 l144 0 0 45 c0 25 -6 61 -14 80 -19
44 -58 55 -204 55 -132 0 -181 17 -237 82 -54 64 -65 111 -65 280 l0 148 130
0 130 0 0 85 0 85 85 0 85 0 0 -84z"/>
<path d="M4230 3077 c-97 -29 -166 -68 -239 -133 -198 -179 -253 -471 -134
-709 40 -79 36 -79 116 0 39 40 94 83 120 97 l48 24 -21 26 c-70 90 -87 236
-39 339 36 76 86 129 161 170 58 31 70 34 153 34 79 -1 97 -4 148 -30 188 -94
253 -325 140 -496 -14 -22 -24 -41 -22 -42 2 -2 27 -18 55 -35 28 -18 79 -62
114 -98 70 -73 64 -74 111 22 83 172 73 391 -27 561 -15 27 -59 80 -98 119
-78 78 -194 143 -294 163 -86 18 -208 13 -292 -12z"/>
<path d="M4343 2749 c-48 -14 -98 -69 -111 -120 -42 -166 164 -285 284 -165
102 102 43 272 -101 290 -22 3 -55 1 -72 -5z"/>
<path d="M3100 2500 l0 -90 260 0 260 0 0 90 0 90 -260 0 -260 0 0 -90z"/>
<path d="M4295 2231 c-92 -25 -198 -95 -241 -161 -34 -50 -27 -60 79 -111 104
-50 168 -62 297 -57 118 6 201 31 289 88 l51 32 -18 30 c-29 50 -109 118 -178
150 -56 26 -80 31 -158 34 -50 2 -104 0 -121 -5z"/>
<path d="M2825 1830 l-60 -60 258 -258 258 -258 77 39 c42 21 78 39 79 41 1 1
-123 127 -275 279 l-277 277 -60 -60z"/>
<path d="M3585 1194 c-106 -23 -205 -75 -285 -150 -113 -107 -173 -221 -191
-368 -17 -128 19 -289 87 -394 14 -22 15 -22 76 43 33 36 87 82 120 102 52 32
57 38 44 52 -8 9 -28 43 -43 76 -23 50 -27 74 -28 140 0 68 4 89 29 139 34 69
91 128 161 164 44 24 61 27 150 27 84 0 107 -4 146 -23 73 -36 125 -87 160
-157 56 -114 50 -242 -17 -340 -13 -20 -24 -39 -24 -43 0 -4 20 -18 45 -31 46
-24 175 -144 175 -162 0 -56 85 111 105 207 56 266 -77 545 -316 663 -138 68
-255 84 -394 55z"/>
<path d="M3635 844 c-67 -35 -97 -83 -97 -154 0 -72 41 -135 105 -159 165 -63
309 135 194 266 -54 61 -138 81 -202 47z"/>
<path d="M3575 323 c-28 -10 -71 -31 -96 -45 -55 -32 -141 -125 -137 -146 2
-8 30 -30 63 -49 131 -73 281 -98 419 -69 80 16 182 59 229 96 l27 22 -19 27
c-39 55 -107 112 -169 143 -56 28 -75 32 -165 35 -80 3 -113 0 -152 -14z"/>
</g>
</svg>
